<svg xmlns="http://www.w3.org/2000/svg" version="1.1" xmlns:xlink="http://www.w3.org/1999/xlink" xmlns:svgjs="http://svgjs.com/svgjs" width="1920" height="1080" preserveAspectRatio="none" viewBox="0 0 1920 1080"><g mask="url(&quot;#SvgjsMask1064&quot;)" fill="none"><rect width="1920" height="1080" x="0" y="0" fill="rgba(18, 25, 43, 1)"></rect><path d="M1843.907,502.546C1912.797,505.97,1990.771,502.777,2028.132,444.797C2067.648,383.472,2052.782,301.905,2012.304,241.211C1975.949,186.7,1909.428,168.919,1843.907,168.566C1777.596,168.209,1706.358,182.459,1672.338,239.379C1637.646,297.425,1651.958,371.287,1688.889,427.935C1722.456,479.423,1782.519,499.495,1843.907,502.546" fill="rgba(93, 106, 141, 0.16)" class="triangle-float2"></path><path d="M808.186,769.444C868.86,768.551,929.237,746.437,960.599,694.489C992.947,640.907,987.408,575.177,959.199,519.306C927.459,456.442,878.58,394.592,808.186,392.62C735.374,390.581,675.549,445.878,641.774,510.415C610.502,570.17,611.341,642.353,647.795,699.095C681.616,751.739,745.621,770.365,808.186,769.444" fill="rgba(93, 106, 141, 0.16)" class="triangle-float1"></path><path d="M806.625,520.047C870.143,518.52,938.93,506.934,970.955,452.06C1003.167,396.866,983.471,328.844,949.977,274.419C918.344,223.018,866.852,188.967,806.625,185.036C738.026,180.559,664.147,195.651,626.728,253.32C586.476,315.355,586.664,398.996,628.014,460.305C665.638,516.09,739.357,521.664,806.625,520.047" fill="rgba(93, 106, 141, 0.16)" class="triangle-float2"></path><path d="M838.845,965.388C921.444,962.466,983.716,896.298,1020.69,822.378C1053.585,756.613,1048.182,681.402,1013.259,616.691C976.22,548.061,916.773,488.462,838.845,485.431C756.297,482.22,681.017,530.879,639.235,602.144C596.95,674.267,593,762.811,633.264,836.082C675.051,912.125,752.131,968.455,838.845,965.388" fill="rgba(93, 106, 141, 0.16)" class="triangle-float2"></path><path d="M1635.501,413.966C1680.909,414.522,1722.192,386.193,1742.708,345.68C1761.517,308.538,1748.892,266.385,1728.663,229.997C1707.664,192.222,1678.559,156.556,1635.501,152.829C1586.094,148.553,1533.046,167.39,1509.482,211.026C1486.715,253.186,1507.472,302.403,1532.749,343.108C1556.273,380.99,1590.912,413.42,1635.501,413.966" fill="rgba(93, 106, 141, 0.16)" class="triangle-float2"></path><path d="M1607.651,470.024C1682.135,471.731,1749.092,425.264,1784.692,359.816C1818.775,297.157,1811.456,222.298,1776.097,160.35C1740.399,97.808,1679.641,51.483,1607.651,49.645C1532.555,47.728,1459.356,85.276,1423.622,151.352C1389.342,214.738,1408.093,289.606,1444.13,352.01C1480.159,414.4,1535.624,468.373,1607.651,470.024" fill="rgba(93, 106, 141, 0.16)" class="triangle-float2"></path><path d="M772.654,751.964C848,751.396,908.888,698.459,947.19,633.572C986.268,567.371,1003.462,488.167,968.909,419.495C930.857,343.869,857.306,285.546,772.654,286.691C689.555,287.815,623.289,350.723,585.383,424.682C550.884,491.993,555.938,570.587,593.503,636.236C631.346,702.371,696.459,752.538,772.654,751.964" fill="rgba(93, 106, 141, 0.16)" class="triangle-float1"></path><path d="M951.959,518.446C998.517,518.303,1049.653,515.489,1075.412,476.706C1103.396,434.572,1100.778,377.865,1073.705,335.14C1048.294,295.037,999.386,279.725,951.959,281.879C908.471,283.854,871.386,308.693,847.973,345.394C822.284,385.664,802.585,436.525,827.187,477.468C851.353,517.685,905.04,518.59,951.959,518.446" fill="rgba(93, 106, 141, 0.16)" class="triangle-float2"></path><path d="M1476.415,1245.384C1566.057,1252.702,1672.915,1253.51,1718.382,1175.909C1764.089,1097.898,1708.137,1006.811,1661.62,929.28C1617.032,854.963,1563.075,771.529,1476.415,772.61C1390.794,773.678,1336.948,857.021,1299.042,933.802C1266.217,1000.29,1257.713,1076.858,1294.396,1141.297C1331.456,1206.399,1401.752,1239.289,1476.415,1245.384" fill="rgba(93, 106, 141, 0.16)" class="triangle-float3"></path><path d="M275.446,895.251C354.876,896.946,438.621,868.458,475.466,798.07C510.509,731.125,475.374,654.341,434.981,590.482C398.12,532.207,344.292,485.734,275.446,481.853C199.338,477.563,120.757,505.274,81.387,570.549C40.896,637.683,49.469,722.539,89.689,789.836C128.835,855.336,199.157,893.623,275.446,895.251" fill="rgba(93, 106, 141, 0.16)" class="triangle-float3"></path><path d="M1291.289,912.74C1377.194,914.709,1471.803,897.462,1514.36,822.813C1556.652,748.629,1523.114,658.681,1477.157,586.711C1435.309,521.176,1369.02,475.506,1291.289,473.478C1209.832,471.353,1130.106,506.895,1087.83,576.555C1044.005,648.768,1041.513,740.712,1085.249,812.979C1127.594,882.948,1209.525,910.866,1291.289,912.74" fill="rgba(93, 106, 141, 0.16)" class="triangle-float1"></path><path d="M710.175,1146.896C765.031,1144.01,816.553,1119.456,844.575,1072.209C873.173,1023.99,875.346,963.985,847.523,915.315C819.499,866.293,766.53,840.664,710.175,837.11C645.694,833.044,574.116,841.542,539.146,895.869C501.991,953.59,510.176,1031.037,548.828,1087.767C583.396,1138.503,648.867,1150.121,710.175,1146.896" fill="rgba(93, 106, 141, 0.16)" class="triangle-float3"></path><path d="M1713.478,1345.431C1796.047,1342.752,1845.185,1262.94,1885.364,1190.757C1924.021,1121.308,1959.844,1041.033,1921.745,971.276C1882.528,899.471,1795.137,870.95,1713.478,876.04C1640.229,880.606,1583.05,931.474,1545.799,994.709C1507.84,1059.146,1488.861,1135.106,1521.119,1202.577C1558.042,1279.806,1627.921,1348.207,1713.478,1345.431" fill="rgba(93, 106, 141, 0.16)" class="triangle-float2"></path><path d="M434.632,1305.05C534.7,1303.836,642.581,1289.261,696.17,1204.743C752.855,1115.343,736.604,1001.594,685.99,908.622C632.748,810.821,545.843,718.679,434.632,724.325C329.046,729.685,275.575,839.845,223.904,932.08C173.973,1021.209,111.613,1122.277,161.868,1211.224C212.561,1300.946,331.587,1306.3,434.632,1305.05" fill="rgba(93, 106, 141, 0.16)" class="triangle-float3"></path><path d="M1009.474,446.54C1098.345,441.97,1175.799,391.735,1221.062,315.118C1267.203,237.014,1281.686,140.542,1236.83,61.693C1191.537,-17.925,1101.011,-60.232,1009.474,-56.822C923.501,-53.62,856.007,5.111,809.678,77.604C758.357,157.909,711.124,255.204,756.508,339.007C803.273,425.36,911.401,451.583,1009.474,446.54" fill="rgba(93, 106, 141, 0.16)" class="triangle-float1"></path><path d="M412.861,927.16C520.405,929.562,613.185,856.886,665.031,762.633C714.953,671.878,715.328,562.013,662.835,472.721C611.045,384.625,515.044,332.396,412.861,333.687C312.875,334.95,222.329,391.588,173.591,478.9C126.06,564.049,133.553,665.761,179.473,751.79C228.586,843.801,308.589,924.831,412.861,927.16" fill="rgba(93, 106, 141, 0.16)" class="triangle-float1"></path><path d="M115.843,281.493C167.259,282.309,210.199,248.249,237.598,204.735C267.314,157.541,288.205,99.31,261.322,50.447C233.738,0.31,172.926,-20.577,115.843,-16.568C65.136,-13.007,25.713,23.746,1.918,68.665C-20.211,110.438,-21.707,159.297,0.602,200.974C24.305,245.255,65.623,280.696,115.843,281.493" fill="rgba(93, 106, 141, 0.16)" class="triangle-float2"></path><path d="M1653.988,447.981C1744.132,451.046,1829.173,407.59,1878.157,331.854C1931.963,248.663,1954.213,143.439,1907.452,56.093C1858.382,-35.566,1757.952,-87.662,1653.988,-86.877C1551.371,-86.102,1452.424,-32.182,1407.066,59.87C1365.699,143.823,1404.518,238.493,1454.756,317.457C1500.433,389.252,1568.943,445.089,1653.988,447.981" fill="rgba(93, 106, 141, 0.16)" class="triangle-float3"></path><path d="M261.781,379.014C329.895,375.498,385.262,327.887,416.591,267.303C445.325,211.737,438.617,147.973,410.031,92.33C378.228,30.426,331.371,-33.175,261.781,-34.035C191.25,-34.907,142.469,27.59,107.043,88.585C71.404,149.947,43.2,222.229,76.567,284.856C111.471,350.368,187.65,382.841,261.781,379.014" fill="rgba(93, 106, 141, 0.16)" class="triangle-float3"></path><path d="M284.782,619.196C319.369,620.81,350.954,599.558,367.908,569.368C384.517,539.792,383.53,503.525,366.071,474.443C349.113,446.196,317.715,431.834,284.782,430.902C249.903,429.915,211.652,438.881,195.11,469.603C179.102,499.333,196.731,533.227,214.092,562.188C230.773,590.015,252.373,617.683,284.782,619.196" fill="rgba(93, 106, 141, 0.16)" class="triangle-float3"></path></g><defs><mask id="SvgjsMask1064"><rect width="1920" height="1080" fill="#ffffff"></rect></mask><style>
            @keyframes float1 {
                0%{transform: translate(0, 0)}
                50%{transform: translate(-10px, 0)}
                100%{transform: translate(0, 0)}
            }

            .triangle-float1 {
                animation: float1 5s infinite;
            }

            @keyframes float2 {
                0%{transform: translate(0, 0)}
                50%{transform: translate(-5px, -5px)}
                100%{transform: translate(0, 0)}
            }

            .triangle-float2 {
                animation: float2 4s infinite;
            }

            @keyframes float3 {
                0%{transform: translate(0, 0)}
                50%{transform: translate(0, -10px)}
                100%{transform: translate(0, 0)}
            }

            .triangle-float3 {
                animation: float3 6s infinite;
            }
        </style></defs></svg>