<svg id="visual" viewBox="0 0 900 600" width="900" height="600" xmlns="http://www.w3.org/2000/svg" xmlns:xlink="http://www.w3.org/1999/xlink" version="1.1"><rect x="0" y="0" width="900" height="600" fill="#001122"></rect><defs><linearGradient id="grad1_0" x1="33.3%" y1="0%" x2="100%" y2="100%"><stop offset="20%" stop-color="#ff0000" stop-opacity="1"></stop><stop offset="80%" stop-color="#ff0000" stop-opacity="1"></stop></linearGradient></defs><defs><linearGradient id="grad1_1" x1="33.3%" y1="0%" x2="100%" y2="100%"><stop offset="20%" stop-color="#ff0000" stop-opacity="1"></stop><stop offset="80%" stop-color="#ea003c" stop-opacity="1"></stop></linearGradient></defs><defs><linearGradient id="grad1_2" x1="33.3%" y1="0%" x2="100%" y2="100%"><stop offset="20%" stop-color="#c6005a" stop-opacity="1"></stop><stop offset="80%" stop-color="#ea003c" stop-opacity="1"></stop></linearGradient></defs><defs><linearGradient id="grad1_3" x1="33.3%" y1="0%" x2="100%" y2="100%"><stop offset="20%" stop-color="#c6005a" stop-opacity="1"></stop><stop offset="80%" stop-color="#97006a" stop-opacity="1"></stop></linearGradient></defs><defs><linearGradient id="grad1_4" x1="33.3%" y1="0%" x2="100%" y2="100%"><stop offset="20%" stop-color="#651b6a" stop-opacity="1"></stop><stop offset="80%" stop-color="#97006a" stop-opacity="1"></stop></linearGradient></defs><defs><linearGradient id="grad1_5" x1="33.3%" y1="0%" x2="100%" y2="100%"><stop offset="20%" stop-color="#651b6a" stop-opacity="1"></stop><stop offset="80%" stop-color="#34225b" stop-opacity="1"></stop></linearGradient></defs><defs><linearGradient id="grad1_6" x1="33.3%" y1="0%" x2="100%" y2="100%"><stop offset="20%" stop-color="#0d1d41" stop-opacity="1"></stop><stop offset="80%" stop-color="#34225b" stop-opacity="1"></stop></linearGradient></defs><defs><linearGradient id="grad1_7" x1="33.3%" y1="0%" x2="100%" y2="100%"><stop offset="20%" stop-color="#0d1d41" stop-opacity="1"></stop><stop offset="80%" stop-color="#001122" stop-opacity="1"></stop></linearGradient></defs><defs><linearGradient id="grad2_0" x1="0%" y1="0%" x2="66.7%" y2="100%"><stop offset="20%" stop-color="#ff0000" stop-opacity="1"></stop><stop offset="80%" stop-color="#ff0000" stop-opacity="1"></stop></linearGradient></defs><defs><linearGradient id="grad2_1" x1="0%" y1="0%" x2="66.7%" y2="100%"><stop offset="20%" stop-color="#ea003c" stop-opacity="1"></stop><stop offset="80%" stop-color="#ff0000" stop-opacity="1"></stop></linearGradient></defs><defs><linearGradient id="grad2_2" x1="0%" y1="0%" x2="66.7%" y2="100%"><stop offset="20%" stop-color="#ea003c" stop-opacity="1"></stop><stop offset="80%" stop-color="#c6005a" stop-opacity="1"></stop></linearGradient></defs><defs><linearGradient id="grad2_3" x1="0%" y1="0%" x2="66.7%" y2="100%"><stop offset="20%" stop-color="#97006a" stop-opacity="1"></stop><stop offset="80%" stop-color="#c6005a" stop-opacity="1"></stop></linearGradient></defs><defs><linearGradient id="grad2_4" x1="0%" y1="0%" x2="66.7%" y2="100%"><stop offset="20%" stop-color="#97006a" stop-opacity="1"></stop><stop offset="80%" stop-color="#651b6a" stop-opacity="1"></stop></linearGradient></defs><defs><linearGradient id="grad2_5" x1="0%" y1="0%" x2="66.7%" y2="100%"><stop offset="20%" stop-color="#34225b" stop-opacity="1"></stop><stop offset="80%" stop-color="#651b6a" stop-opacity="1"></stop></linearGradient></defs><defs><linearGradient id="grad2_6" x1="0%" y1="0%" x2="66.7%" y2="100%"><stop offset="20%" stop-color="#34225b" stop-opacity="1"></stop><stop offset="80%" stop-color="#0d1d41" stop-opacity="1"></stop></linearGradient></defs><defs><linearGradient id="grad2_7" x1="0%" y1="0%" x2="66.7%" y2="100%"><stop offset="20%" stop-color="#001122" stop-opacity="1"></stop><stop offset="80%" stop-color="#0d1d41" stop-opacity="1"></stop></linearGradient></defs><g transform="translate(900, 0)"><path d="M0 540.8C-27.9 489.3 -55.7 437.7 -82.5 414.9C-109.3 392 -135.1 397.8 -165.3 399.1C-195.5 400.4 -230.2 397.1 -254.5 380.8C-278.7 364.5 -292.5 335.2 -316.8 316.8C-341 298.4 -375.7 290.9 -413.2 276.1C-450.8 261.3 -491.4 239.1 -499.7 207C-508 174.8 -484 132.7 -485.5 96.6C-487 60.4 -513.9 30.2 -540.8 0L0 0Z" fill="#031832"></path><path d="M0 473.2C-24.4 428.1 -48.7 383 -72.2 363C-95.7 343 -118.2 348.1 -144.7 349.2C-171.1 350.3 -201.4 347.5 -222.6 333.2C-243.9 318.9 -256 293.3 -277.2 277.2C-298.4 261.1 -328.7 254.6 -361.6 241.6C-394.5 228.6 -429.9 209.2 -437.2 181.1C-444.5 153 -423.5 116.1 -424.8 84.5C-426.1 52.9 -449.7 26.4 -473.2 0L0 0Z" fill="#1f204f"></path><path d="M0 405.6C-20.9 367 -41.8 328.3 -61.9 311.2C-82 294 -101.3 298.4 -124 299.3C-146.7 300.3 -172.6 297.8 -190.8 285.6C-209 273.4 -219.4 251.4 -237.6 237.6C-255.8 223.8 -281.7 218.2 -309.9 207.1C-338.1 196 -368.5 179.3 -374.7 155.2C-381 131.1 -363 99.5 -364.1 72.4C-365.2 45.3 -385.4 22.7 -405.6 0L0 0Z" fill="#4c2164"></path><path d="M0 338C-17.4 305.8 -34.8 273.6 -51.6 259.3C-68.3 245 -84.4 248.6 -103.3 249.4C-122.2 250.2 -143.9 248.2 -159 238C-174.2 227.8 -182.8 209.5 -198 198C-213.1 186.5 -234.8 181.8 -258.3 172.6C-281.8 163.3 -307.1 149.4 -312.3 129.4C-317.5 109.3 -302.5 83 -303.4 60.4C-304.4 37.8 -321.2 18.9 -338 0L0 0Z" fill="#7e0d6c"></path><path d="M0 270.4C-13.9 244.6 -27.9 218.9 -41.3 207.4C-54.7 196 -67.6 198.9 -82.7 199.6C-97.8 200.2 -115.1 198.6 -127.2 190.4C-139.4 182.3 -146.3 167.6 -158.4 158.4C-170.5 149.2 -187.8 145.5 -206.6 138.1C-225.4 130.6 -245.7 119.6 -249.8 103.5C-254 87.4 -242 66.4 -242.7 48.3C-243.5 30.2 -257 15.1 -270.4 0L0 0Z" fill="#b00064"></path><path d="M0 202.8C-10.4 183.5 -20.9 164.1 -30.9 155.6C-41 147 -50.7 149.2 -62 149.7C-73.3 150.1 -86.3 148.9 -95.4 142.8C-104.5 136.7 -109.7 125.7 -118.8 118.8C-127.9 111.9 -140.9 109.1 -155 103.5C-169.1 98 -184.3 89.7 -187.4 77.6C-190.5 65.6 -181.5 49.8 -182.1 36.2C-182.6 22.7 -192.7 11.3 -202.8 0L0 0Z" fill="#da004d"></path><path d="M0 135.2C-7 122.3 -13.9 109.4 -20.6 103.7C-27.3 98 -33.8 99.5 -41.3 99.8C-48.9 100.1 -57.5 99.3 -63.6 95.2C-69.7 91.1 -73.1 83.8 -79.2 79.2C-85.3 74.6 -93.9 72.7 -103.3 69C-112.7 65.3 -122.8 59.8 -124.9 51.7C-127 43.7 -121 33.2 -121.4 24.1C-121.7 15.1 -128.5 7.6 -135.2 0L0 0Z" fill="#f70027"></path><path d="M0 67.6C-3.5 61.2 -7 54.7 -10.3 51.9C-13.7 49 -16.9 49.7 -20.7 49.9C-24.4 50 -28.8 49.6 -31.8 47.6C-34.8 45.6 -36.6 41.9 -39.6 39.6C-42.6 37.3 -47 36.4 -51.7 34.5C-56.4 32.7 -61.4 29.9 -62.5 25.9C-63.5 21.9 -60.5 16.6 -60.7 12.1C-60.9 7.6 -64.2 3.8 -67.6 0L0 0Z" fill="#ff0000"></path></g><g transform="translate(0, 600)"><path d="M0 -540.8C33.8 -527.2 67.6 -513.6 99.5 -500.2C131.4 -486.8 161.5 -473.6 188.7 -455.5C215.8 -437.3 240.1 -414.2 264.5 -395.8C288.8 -377.4 313.3 -363.7 353.6 -353.6C393.8 -343.4 449.7 -336.8 449.7 -300.5C449.7 -264.1 393.8 -198 386.2 -160C378.6 -122 419.3 -112.1 453.1 -90.1C486.9 -68.2 513.9 -34.1 540.8 0L0 0Z" fill="#031832"></path><path d="M0 -473.2C29.6 -461.3 59.1 -449.4 87.1 -437.7C115 -426 141.3 -414.4 165.1 -398.5C188.8 -382.7 210.1 -362.4 231.4 -346.3C252.7 -330.2 274.2 -318.2 309.4 -309.4C344.5 -300.5 393.5 -294.7 393.5 -262.9C393.5 -231.1 344.6 -173.2 337.9 -140C331.3 -106.7 366.9 -98.1 396.5 -78.9C426.1 -59.6 449.7 -29.8 473.2 0L0 0Z" fill="#1f204f"></path><path d="M0 -405.6C25.3 -395.4 50.7 -385.2 74.6 -375.2C98.6 -365.1 121.1 -355.2 141.5 -341.6C161.9 -328 180.1 -310.6 198.3 -296.8C216.6 -283 235 -272.8 265.2 -265.2C295.3 -257.6 337.3 -252.6 337.3 -225.4C337.3 -198.1 295.3 -148.5 289.6 -120C283.9 -91.5 314.5 -84.1 339.8 -67.6C365.2 -51.1 385.4 -25.6 405.6 0L0 0Z" fill="#4c2164"></path><path d="M0 -338C21.1 -329.5 42.2 -321 62.2 -312.6C82.1 -304.3 100.9 -296 117.9 -284.7C134.9 -273.3 150 -258.9 165.3 -247.4C180.5 -235.9 195.8 -227.3 221 -221C246.1 -214.6 281.1 -210.5 281.1 -187.8C281.1 -165.1 246.1 -123.7 241.4 -100C236.6 -76.2 262.1 -70.1 283.2 -56.3C304.3 -42.6 321.2 -21.3 338 0L0 0Z" fill="#7e0d6c"></path><path d="M0 -270.4C16.9 -263.6 33.8 -256.8 49.7 -250.1C65.7 -243.4 80.8 -236.8 94.3 -227.7C107.9 -218.7 120 -207.1 132.2 -197.9C144.4 -188.7 156.7 -181.8 176.8 -176.8C196.9 -171.7 224.8 -168.4 224.8 -150.2C224.8 -132.1 196.9 -99 193.1 -80C189.3 -61 209.6 -56.1 226.6 -45.1C243.5 -34.1 256.9 -17 270.4 0L0 0Z" fill="#b00064"></path><path d="M0 -202.8C12.7 -197.7 25.3 -192.6 37.3 -187.6C49.3 -182.6 60.6 -177.6 70.7 -170.8C80.9 -164 90 -155.3 99.2 -148.4C108.3 -141.5 117.5 -136.4 132.6 -132.6C147.7 -128.8 168.6 -126.3 168.6 -112.7C168.6 -99 147.7 -74.2 144.8 -60C142 -45.7 157.2 -42 169.9 -33.8C182.6 -25.6 192.7 -12.8 202.8 0L0 0Z" fill="#da004d"></path><path d="M0 -135.2C8.4 -131.8 16.9 -128.4 24.9 -125.1C32.9 -121.7 40.4 -118.4 47.2 -113.9C54 -109.3 60 -103.5 66.1 -98.9C72.2 -94.3 78.3 -90.9 88.4 -88.4C98.4 -85.9 112.4 -84.2 112.4 -75.1C112.4 -66 98.4 -49.5 96.5 -40C94.6 -30.5 104.8 -28 113.3 -22.5C121.7 -17 128.5 -8.5 135.2 0L0 0Z" fill="#f70027"></path><path d="M0 -67.6C4.2 -65.9 8.4 -64.2 12.4 -62.5C16.4 -60.9 20.2 -59.2 23.6 -56.9C27 -54.7 30 -51.8 33.1 -49.5C36.1 -47.2 39.2 -45.5 44.2 -44.2C49.2 -42.9 56.2 -42.1 56.2 -37.6C56.2 -33 49.2 -24.7 48.3 -20C47.3 -15.2 52.4 -14 56.6 -11.3C60.9 -8.5 64.2 -4.3 67.6 0L0 0Z" fill="#ff0000"></path></g>
<style>
.big {
    font: bold 400px sans-serif;
    fill: white;
}
</style>
<text x="300" y="450" class="big">B</text>
</svg>